Normalized EMG Linear Envelopes
nRows=149
nColumns=4

endheader
time	 med_gas_r	  soleus_r	 tib_ant_r	
2.75	  0.002118	  0.020684	  0.001492	
2.8125	  0.002108	  0.020291	  0.001482	
2.875	  0.002112	  0.019898	  0.001495	
2.9375	  0.002159	  0.019703	  0.001494	
3	  0.002207	  0.019757	  0.001470	
3.0625	  0.002266	  0.019946	  0.001469	
3.125	  0.002403	  0.020130	  0.001494	
3.1875	  0.002654	  0.020208	  0.001508	
3.25	  0.002991	  0.020145	  0.001487	
3.3125	  0.003280	  0.019791	  0.001472	
3.375	  0.003186	  0.019089	  0.001467	
3.4375	  0.002795	  0.018347	  0.001453	
3.5	  0.002401	  0.017750	  0.001463	
3.5625	  0.002136	  0.017319	  0.001476	
3.625	  0.002052	  0.016980	  0.001489	
3.6875	  0.002122	  0.016607	  0.001488	
3.75	  0.002219	  0.016115	  0.001469	
3.8125	  0.002244	  0.015650	  0.001451	
3.875	  0.002239	  0.015492	  0.001463	
3.9375	  0.002287	  0.015896	  0.001525	
4	  0.002496	  0.017385	  0.001608	
4.0625	  0.002947	  0.020846	  0.001644	
4.125	  0.003863	  0.026656	  0.001577	
4.1875	  0.005245	  0.033614	  0.001458	
4.25	  0.006676	  0.037961	  0.001310	
4.3125	  0.009184	  0.037875	  0.001257	
4.375	  0.017402	  0.044370	  0.001597	
4.4375	  0.035827	  0.067682	  0.002673	
4.5	  0.067004	  0.113046	  0.004707	
4.5625	  0.107737	  0.180381	  0.007472	
4.625	  0.148377	  0.256370	  0.010156	
4.6875	  0.180632	  0.318436	  0.011967	
4.75	  0.202159	  0.354192	  0.013164	
4.8125	  0.223506	  0.374486	  0.014536	
4.875	  0.254972	  0.388788	  0.016318	
4.9375	  0.290144	  0.400057	  0.018477	
5	  0.319722	  0.423891	  0.021439	
5.0625	  0.345593	  0.454354	  0.024939	
5.125	  0.368592	  0.478066	  0.027634	
5.1875	  0.393964	  0.495537	  0.029438	
5.25	  0.423024	  0.510754	  0.030945	
5.3125	  0.448963	  0.536750	  0.032777	
5.375	  0.485464	  0.568879	  0.035639	
5.4375	  0.531705	  0.595225	  0.039710	
5.5	  0.573061	  0.612339	  0.044364	
5.5625	  0.599926	  0.611153	  0.047954	
5.625	  0.606419	  0.603690	  0.050059	
5.6875	  0.599168	  0.598483	  0.051799	
5.75	  0.594162	  0.599324	  0.052235	
5.8125	  0.601666	  0.614071	  0.051462	
5.875	  0.618058	  0.646381	  0.050838	
5.9375	  0.633885	  0.682663	  0.052522	
6	  0.642702	  0.713371	  0.056926	
6.0625	  0.633052	  0.737746	  0.060507	
6.125	  0.611645	  0.767663	  0.062662	
6.1875	  0.594552	  0.797339	  0.064106	
6.25	  0.584356	  0.802258	  0.064516	
6.3125	  0.585452	  0.776876	  0.063943	
6.375	  0.606766	  0.733896	  0.063475	
6.4375	  0.647245	  0.692049	  0.062924	
6.5	  0.682889	  0.666645	  0.060846	
6.5625	  0.708677	  0.648633	  0.059696	
6.625	  0.729209	  0.630797	  0.062835	
6.6875	  0.743045	  0.621202	  0.069624	
6.75	  0.765094	  0.627949	  0.076450	
6.8125	  0.799545	  0.639839	  0.080847	
6.875	  0.819799	  0.660458	  0.082875	
6.9375	  0.824979	  0.703099	  0.083449	
7	  0.821848	  0.753022	  0.083265	
7.0625	  0.810991	  0.775130	  0.081303	
7.125	  0.792852	  0.782648	  0.078402	
7.1875	  0.759825	  0.788947	  0.075801	
7.25	  0.733187	  0.785061	  0.073773	
7.3125	  0.741688	  0.791144	  0.073476	
7.375	  0.758654	  0.805637	  0.074573	
7.4375	  0.766435	  0.817695	  0.075075	
7.5	  0.787178	  0.831395	  0.075291	
7.5625	  0.826402	  0.844925	  0.075879	
7.625	  0.853293	  0.853189	  0.076079	
7.6875	  0.851593	  0.852395	  0.073393	
7.75	  0.826770	  0.834553	  0.068253	
7.8125	  0.794692	  0.819041	  0.065202	
7.875	  0.755659	  0.816265	  0.066862	
7.9375	  0.709712	  0.829228	  0.071692	
8	  0.668377	  0.858305	  0.076811	
8.0625	  0.656437	  0.889939	  0.080343	
8.125	  0.676208	  0.917192	  0.082203	
8.1875	  0.717509	  0.932180	  0.082718	
8.25	  0.778937	  0.924944	  0.082641	
8.3125	  0.837309	  0.915614	  0.082413	
8.375	  0.881490	  0.897895	  0.083290	
8.4375	  0.917852	  0.870642	  0.087054	
8.5	  0.940826	  0.869649	  0.092150	
8.5625	  0.961691	  0.896758	  0.095833	
8.625	  0.975085	  0.944314	  0.097869	
8.6875	  0.963101	  0.989847	  0.098691	
8.75	  0.931642	  0.995707	  0.098275	
8.8125	  0.891662	  0.964086	  0.096140	
8.875	  0.853543	  0.939175	  0.092707	
8.9375	  0.816141	  0.922679	  0.088012	
9	  0.795229	  0.882749	  0.081809	
9.0625	  0.803092	  0.833880	  0.075691	
9.125	  0.822885	  0.806101	  0.071508	
9.1875	  0.835576	  0.807667	  0.070894	
9.25	  0.850629	  0.820545	  0.071516	
9.3125	  0.850610	  0.802503	  0.070506	
9.375	  0.804557	  0.724185	  0.066157	
9.4375	  0.702736	  0.593806	  0.060863	
9.5	  0.557040	  0.429983	  0.060311	
9.5625	  0.392642	  0.268379	  0.068893	
9.625	  0.245629	  0.149983	  0.084844	
9.6875	  0.129541	  0.085029	  0.092618	
9.75	  0.050000	  0.057851	  0.084354	
9.8125	  0.008472	  0.044397	  0.065267	
9.875	 -0.006282	  0.036209	  0.044116	
9.9375	 -0.007234	  0.032062	  0.026224	
10	 -0.003257	  0.030182	  0.014249	
10.0625	  0.001029	  0.028004	  0.008258	
10.125	  0.003934	  0.026588	  0.006906	
10.1875	  0.005248	  0.027500	  0.007711	
10.25	  0.005386	  0.029387	  0.008457	
10.3125	  0.005059	  0.029768	  0.008749	
10.375	  0.004732	  0.026913	  0.008341	
10.4375	  0.004490	  0.023009	  0.007229	
10.5	  0.004292	  0.020277	  0.006274	
10.5625	  0.004010	  0.018912	  0.005488	
10.625	  0.003762	  0.018353	  0.004974	
10.6875	  0.003627	  0.018154	  0.004780	
10.75	  0.003577	  0.018026	  0.004634	
10.8125	  0.003628	  0.017992	  0.004539	
10.875	  0.003840	  0.017936	  0.004410	
10.9375	  0.004232	  0.017832	  0.004383	
11	  0.004588	  0.017764	  0.004415	
11.0625	  0.004462	  0.017572	  0.004351	
11.125	  0.003985	  0.017593	  0.004135	
11.1875	  0.003527	  0.018105	  0.003949	
11.25	  0.003224	  0.019156	  0.003777	
11.3125	  0.003107	  0.020535	  0.003558	
11.375	  0.003108	  0.021610	  0.003286	
11.4375	  0.003087	  0.021168	  0.003002	
11.5	  0.002964	  0.019688	  0.002766	
11.5625	  0.002851	  0.018280	  0.002562	
11.625	  0.002814	  0.017452	  0.002316	
11.6875	  0.002849	  0.017232	  0.002124	
11.75	  0.002899	  0.017280	  0.002014	
11.8125	  0.002874	  0.017238	  0.001939	
11.875	  0.002755	  0.017095	  0.001861	
11.9375	  0.002592	  0.016965	  0.001798	
12	  0.002433	  0.016791	  0.001787	
